<?xml version="1.0" standalone="yes"?>

<svg version="1.1" viewBox="0.0 0.0 1141.0 511.0" fill="none" stroke="none" stroke-linecap="square" stroke-miterlimit="10" xmlns="http://www.w3.org/2000/svg" xmlns:xlink="http://www.w3.org/1999/xlink"><clipPath id="p.0"><path d="m0 0l1141.0 0l0 511.0l-1141.0 0l0 -511.0z" clip-rule="nonzero"></path></clipPath><g clip-path="url(#p.0)"><path fill="#000000" fill-opacity="0.0" d="m0 0l1141.0 0l0 511.0l-1141.0 0z" fill-rule="nonzero"></path><path fill="#0b5394" d="m-0.003937008 0.002624672l1141.0078 0l0 510.99213l-1141.0078 0z" fill-rule="nonzero"></path><path stroke="#000000" stroke-width="1.0" stroke-linejoin="round" stroke-linecap="butt" d="m-0.003937008 0.002624672l1141.0078 0l0 510.99213l-1141.0078 0z" fill-rule="nonzero"></path><path fill="#c9daf8" d="m385.5138 34.639553c4.9154663 0 8.384277 0.2776184 10.406464 0.83286667c2.0221863 0.54628754 3.5777283 1.5672226 4.6665955 3.0627975c1.0888672 1.4866219 1.6333008 3.2105675 1.6333008 5.171833c0 2.0687332 -0.585907 3.7882004 -1.7577515 5.1583977c-1.161438 1.3702011 -2.89328 2.350834 -5.195465 2.9419022c-1.7421875 0.4567299 -4.6199036 0.68509674 -8.633179 0.68509674l-14.79306 0l0 -17.852894zm2.146637 24.824795c4.3554688 0 7.6894836 0.33135605 10.002045 0.99406433c2.3229065 0.653759 4.1376953 1.7955894 5.444336 3.4255028c1.3066406 1.6209526 1.9599609 3.5329628 1.9599609 5.7360344c0 1.880661 -0.45111084 3.541916 -1.353302 4.9837646c-0.9022217 1.4328842 -2.0533142 2.525467 -3.4532776 3.2777328c-1.3999634 0.75226593 -3.1421509 1.2895966 -5.2265625 1.6119995c-1.1822205 0.18806458 -3.2355042 0.28209686 -6.159912 0.28209686l-17.03302 0l0 -20.311195zm-24.872925 -31.796696l0 59.079792l26.086212 0c4.3554993 0 8.031738 -0.3268814 11.028717 -0.9806366c3.0073547 -0.6627121 5.5065613 -1.6388626 7.49765 -2.9284668c1.9910583 -1.2895966 3.660675 -3.1210098 5.008789 -5.494232c1.35849 -2.3821793 2.0377502 -4.956894 2.0377502 -7.7241592c0 -3.4389343 -1.1148071 -6.421135 -3.3443909 -8.946602c-2.2192383 -2.525467 -5.3976746 -4.3120995 -9.5354 -5.3598976c3.2044067 -1.3702011 5.5999146 -3.170269 7.186554 -5.4002c1.5866394 -2.2299347 2.3799438 -4.6076317 2.3799438 -7.1330986c0 -2.7135353 -0.8970032 -5.3106422 -2.6910706 -7.7913322c-1.7836609 -2.489647 -4.256958 -4.3300114 -7.419861 -5.521099c-3.1525269 -1.2000465 -7.342102 -1.8000679 -12.568665 -1.8000679z" fill-rule="evenodd"></path><path fill="#c9daf8" d="m425.87976 27.667652l0 8.342098l8.399841 0l0 -8.342098zm0 16.281197l0 42.798595l8.399841 0l0 -42.798595z" fill-rule="evenodd"></path><path fill="#c9daf8" d="m443.79944 61.721146l0 7.2942963l25.806213 0l0 -7.2942963z" fill-rule="evenodd"></path><path fill="#c9daf8" d="m473.7589 27.667652l18.153015 59.079792l9.239838 0l14.513092 -45.015095c0.6221924 -1.9075317 1.2910767 -4.2180634 2.0065918 -6.9315987c0.21777344 0.8597336 0.9333496 3.1702652 2.1466675 6.9315987l14.419739 45.015095l8.726501 0l18.759644 -59.079792l-9.0997925 0l-10.733154 37.962597c-1.3999634 4.8359985 -2.5355225 9.121231 -3.4066162 12.855698c-1.0888672 -6.5286026 -2.8621826 -13.500504 -5.3198853 -20.915699l-9.799866 -29.902596l-10.9198 0l-13.019775 39.89699c-0.3110962 0.96720123 -1.337738 4.6076355 -3.0799255 10.921303c-0.8088684 -4.0031357 -1.7733154 -8.033134 -2.89328 -12.090004l-10.406494 -38.72829z" fill-rule="evenodd"></path><path fill="#c9daf8" d="m589.53687 48.94605c4.262146 0 7.730957 1.397068 10.406494 4.1912003c1.7421875 1.8000641 2.7999268 4.500164 3.1732788 8.1003l-27.672852 0c0.27996826 -3.7344666 1.7318115 -6.716667 4.3554688 -8.946602c2.6340332 -2.2299309 5.879883 -3.3448982 9.73761 -3.3448982zm-0.093322754 -5.9643974c-6.8442993 0 -12.413086 1.9881325 -16.70636 5.9643974c-4.293274 3.976265 -6.4398804 9.564533 -6.4398804 16.764797c0 6.9584656 2.1206665 12.367615 6.3620605 16.227463c4.251831 3.850891 10.002075 5.7763367 17.250854 5.7763367c5.755432 0 10.484253 -1.2089996 14.186401 -3.626999c3.7021484 -2.4179993 6.237671 -5.816635 7.6065063 -10.1959l-8.67981 -0.9269028c-1.2755737 3.0627975 -3.0021973 5.2927322 -5.1799316 6.6897964c-2.1777344 1.3970718 -4.8065796 2.095604 -7.8865356 2.095604c-4.1376953 0 -7.5909424 -1.2492981 -10.359802 -3.747902c-2.7688599 -2.4985962 -4.308838 -6.098732 -4.619934 -10.8004l36.95935 0c0.03112793 -0.85972595 0.046691895 -1.5045319 0.046691895 -1.9343948c0 -7.065933 -2.0999756 -12.546734 -6.2999268 -16.442398c-4.19989 -3.895668 -9.613159 -5.843498 -16.239685 -5.843498z" fill-rule="evenodd"></path><path fill="#c9daf8" d="m642.6893 48.94605c4.262146 0 7.730957 1.397068 10.406494 4.1912003c1.7421875 1.8000641 2.7999268 4.500164 3.1732788 8.1003l-27.672852 0c0.27996826 -3.7344666 1.7318115 -6.716667 4.3554688 -8.946602c2.6340332 -2.2299309 5.879883 -3.3448982 9.73761 -3.3448982zm-0.093322754 -5.9643974c-6.8442993 0 -12.413147 1.9881325 -16.70636 5.9643974c-4.293274 3.976265 -6.4398804 9.564533 -6.4398804 16.764797c0 6.9584656 2.1206665 12.367615 6.3620605 16.227463c4.251831 3.850891 10.002075 5.7763367 17.250854 5.7763367c5.755432 0 10.484253 -1.2089996 14.186401 -3.626999c3.7021484 -2.4179993 6.237671 -5.816635 7.6065063 -10.1959l-8.67981 -0.9269028c-1.2755737 3.0627975 -3.0021973 5.2927322 -5.1799316 6.6897964c-2.1777344 1.3970718 -4.8065796 2.095604 -7.8865356 2.095604c-4.1376953 0 -7.5909424 -1.2492981 -10.359802 -3.747902c-2.7688599 -2.4985962 -4.308838 -6.098732 -4.619934 -10.8004l36.95935 0c0.03112793 -0.85972595 0.046691895 -1.5045319 0.046691895 -1.9343948c0 -7.065933 -2.0999756 -12.546734 -6.2999268 -16.442398c-4.19989 -3.895668 -9.613159 -5.843498 -16.239685 -5.843498z" fill-rule="evenodd"></path><path fill="#c9daf8" d="m675.4487 27.667652l0 59.079792l8.399841 0l0 -16.966301l5.9265137 -4.9165955l16.37976 21.882896l10.359802 0l-20.85962 -26.920399l18.94629 -15.878197l-10.873108 0l-19.879639 17.4096l0 -33.690796z" fill-rule="evenodd"></path><path fill="#c9daf8" d="m723.0012 27.667652l0 59.079792l8.399841 0l0 -59.079792z" fill-rule="evenodd"></path><path fill="#c9daf8" d="m739.6609 43.94885l18.806335 42.879192c-0.34222412 0.77913666 -0.59106445 1.3702011 -0.74664307 1.773201c-1.18219 2.874733 -2.0377197 4.674797 -2.5665894 5.4002c-0.7155762 0.96720123 -1.6333008 1.7194672 -2.753296 2.2567978c-1.1199951 0.5373306 -2.6132812 0.80599976 -4.4799194 0.80599976c-1.3688965 0 -2.9710693 -0.2149353 -4.8065796 -0.6447983l0 0l0.9332886 6.8106995c1.9910889 0.59106445 3.7954712 0.8865967 5.413269 0.8865967c2.675476 0 4.977661 -0.5597153 6.906555 -1.6791611c1.928833 -1.1104889 3.6398926 -2.8613052 5.1332397 -5.252434c1.1199341 -1.773201 2.69104 -5.0106354 4.713196 -9.712303l18.853027 -43.52399l-8.399841 0l-10.59314 24.945698c-1.3377686 3.1702652 -2.4888306 6.421135 -3.453308 9.752594c-1.0577393 -3.4657974 -2.2554932 -6.7703934 -3.5932617 -9.913795l-10.31311 -24.784496z" fill-rule="evenodd"></path><path fill="#c9daf8" d="m293.7454 126.53697l0 59.07979l8.726532 0l0 -50.294388l19.786316 50.294388l8.166504 0l19.87967 -49.44809l0 49.44809l8.726501 0l0 -59.07979l-12.179779 0l-16.37973 41.106003c-1.6488342 4.164322 -2.862152 7.3211517 -3.639923 9.4704895c-0.6844177 -1.9344025 -1.7732849 -4.8494263 -3.2666016 -8.745102l-16.193054 -41.83139z" fill-rule="evenodd"></path><path fill="#c9daf8" d="m404.20346 164.13687l0 2.65979c0 3.1971436 -0.45111084 5.615143 -1.353302 7.254013c-1.1822205 2.1224518 -3.0332947 3.7971497 -5.553253 5.024063c-2.5199585 1.2179565 -5.3976746 1.8269348 -8.633179 1.8269348c-3.2666016 0 -5.7502747 -0.6448059 -7.450989 -1.9344025c-1.6903381 -1.2895966 -2.535492 -2.901596 -2.535492 -4.8359985c0 -1.2627411 0.3888855 -2.4090424 1.166626 -3.4389343c0.777771 -1.0388489 1.8822021 -1.8269348 3.3132935 -2.364273c1.4310913 -0.537323 3.8732605 -1.020935 7.326538 -1.4507904c6.0976562 -0.75227356 10.670929 -1.665741 13.719757 -2.7404022zm-10.686493 -22.285904c-4.262146 0 -8.010956 0.5059967 -11.24646 1.5179749c-3.2355042 1.0030212 -5.7087708 2.440384 -7.419861 4.3121033c-1.7110901 1.8627472 -2.9399414 4.312088 -3.686615 7.3480225l8.213196 0.96720886c0.9022217 -3.0359344 2.291809 -5.1494446 4.1688232 -6.3405457c1.8873596 -1.2000275 4.8065796 -1.8000641 8.757629 -1.8000641c4.231018 0 7.419861 0.81944275 9.566498 2.4582977c1.5866394 1.2089996 2.3799438 3.2911682 2.3799438 6.2465057c0 0.2686615 -0.015563965 0.9000397 -0.046661377 1.894104c-3.2043762 0.9671936 -8.197632 1.8000641 -14.979736 2.4985962c-3.328827 0.34925842 -5.817688 0.71195984 -7.466522 1.0881042c-2.2399902 0.537323 -4.2569885 1.329895 -6.0510254 2.3777008c-1.7836609 1.0477905 -3.2303162 2.440384 -4.339905 4.177765c-1.0992432 1.7284241 -1.6488647 3.6404266 -1.6488647 5.736023c0 3.5732727 1.4621887 6.5106964 4.386566 8.812271c2.924408 2.2926178 7.1087646 3.4389343 12.553131 3.4389343c3.2977295 0 6.382843 -0.47016907 9.255402 -1.4105072c2.882904 -0.9403229 5.879883 -2.5523224 8.990936 -4.8359985c0.24890137 2.0149994 0.8088684 3.774765 1.6799622 5.279297l8.773193 0c-1.0577698 -1.638855 -1.7681274 -3.3493652 -2.131073 -5.131531c-0.3526001 -1.7911072 -0.5288696 -6.058426 -0.5288696 -12.801956l0 -9.671997c0 -3.223999 -0.14001465 -5.4539337 -0.42001343 -6.689804c-0.49777222 -1.9881287 -1.368866 -3.6314697 -2.6132812 -4.9300385c-1.2444153 -1.3074951 -3.1888428 -2.3911285 -5.8332214 -3.2508545c-2.6444092 -0.8597412 -6.082123 -1.2896118 -10.313171 -1.2896118z" fill-rule="evenodd"></path><path fill="#c9daf8" d="m435.6096 127.866875l-8.35321 4.352394l0 10.598907l-6.1598816 0l0 5.6419983l6.1598816 0l0 24.623291c0 4.3524017 0.34222412 7.2092285 1.0266724 8.570465c0.6844177 1.3522949 1.8666077 2.44487 3.5466003 3.2777405c1.6799622 0.8328552 4.0443726 1.2492981 7.0932007 1.2492981c1.8666382 0 3.9821472 -0.2149353 6.3465576 -0.6448059l-1.2133179 -6.4076996c-1.5244141 0.18806458 -2.753296 0.2821045 -3.6865845 0.2821045c-1.2444458 0 -2.2036743 -0.17463684 -2.8777466 -0.52389526c-0.6636963 -0.34927368 -1.1459045 -0.81944275 -1.4466248 -1.4105072c-0.29037476 -0.59106445 -0.43554688 -1.9209595 -0.43554688 -3.9897003l0 -25.02629l8.446503 0l0 -5.6419983l-8.446503 0l0 -14.951302z" fill-rule="evenodd"></path><path fill="#c9daf8" d="m452.2693 126.53697l0 59.07979l8.399841 0l0 -23.414291c0 -3.3583374 0.4666748 -5.991272 1.3999939 -7.8988037c0.9333191 -1.9075317 2.4940186 -3.4165344 4.682129 -4.5270233c2.1984863 -1.1194458 4.542145 -1.6791687 7.0309753 -1.6791687c3.3288574 0 5.900635 0.8283844 7.7154236 2.4851685c1.8251648 1.6478271 2.737732 4.2852325 2.737732 7.9122314l0 27.121887l8.399872 0l0 -27.121887c0 -4.191208 -0.5859375 -7.388336 -1.7577515 -9.5914c-1.1614685 -2.203064 -3.09552 -3.927002 -5.802124 -5.171829c-2.7066345 -1.2537842 -5.895447 -1.8806763 -9.566498 -1.8806763c-5.973236 0 -10.9198 1.9612732 -14.839752 5.8838043l0 -21.1978z" fill-rule="evenodd"></path><path fill="#c9daf8" d="m562.72736 125.52947c-6.0354614 0 -11.567932 1.1910934 -16.597473 3.573265c-5.019226 2.37323 -8.892456 5.852463 -11.619812 10.437698c-2.71698 4.576294 -4.0755005 9.940674 -4.0755005 16.09314c0 5.6419983 1.2029419 10.921295 3.6088257 15.837891c2.4162598 4.9165955 5.9317627 8.673462 10.546509 11.270569c4.625122 2.58815 10.624268 3.8822327 17.997437 3.8822327c7.1243286 0 13.149414 -1.6836395 18.075256 -5.050934c4.9362183 -3.376236 8.353149 -8.274933 10.250916 -14.69606l-9.053162 -1.9747009c-1.2444458 4.9703217 -3.6243896 8.718231 -7.1398926 11.243698c-3.515503 2.525467 -7.808716 3.7881927 -12.879761 3.7881927c-4.1688232 0 -8.042114 -0.92689514 -11.619812 -2.7807007c-3.5776978 -1.8537903 -6.216919 -4.652405 -7.9176025 -8.395828c-1.6903687 -3.752365 -2.5355225 -8.1405945 -2.5355225 -13.164658c0 -3.8956757 0.71551514 -7.6749115 2.1466064 -11.337738c1.4310913 -3.6717682 3.909607 -6.595764 7.435425 -8.771957c3.536255 -2.1762085 7.9332275 -3.2643127 13.190918 -3.2643127c4.573242 0 8.368713 0.9806366 11.386414 2.9419098c3.0177612 1.9612579 5.3199463 5.0912323 6.906555 9.389893l8.913208 -1.8134918c-1.8355103 -5.4539337 -5.086609 -9.68544 -9.753174 -12.694504c-4.666565 -3.0090637 -10.422058 -4.513603 -17.266357 -4.513603z" fill-rule="evenodd"></path><path fill="#c9daf8" d="m621.1063 147.85567c4.1376953 0 7.5961914 1.3657379 10.375366 4.097168c2.7896118 2.7224884 4.184387 6.7301025 4.184387 12.022827c0 5.615143 -1.3844604 9.792908 -4.1532593 12.53331c-2.7688599 2.740387 -6.237671 4.1105957 -10.406494 4.1105957c-4.199951 0 -7.684326 -1.3612366 -10.453125 -4.08374c-2.7688599 -2.73143 -4.1532593 -6.837555 -4.1532593 -12.318359c0 -5.4808044 1.3843994 -9.577957 4.1532593 -12.291504c2.7687988 -2.7135315 6.253174 -4.0702972 10.453125 -4.0702972zm0 -6.0046997c-6.128784 0 -11.324219 1.585144 -15.586426 4.7554016c-5.102112 3.8150635 -7.6531982 9.68544 -7.6531982 17.6111c0 7.227127 2.1362915 12.761658 6.4088135 16.603592c4.282898 3.8419342 9.893127 5.762909 16.83081 5.762909c4.324341 0 8.311707 -0.87316895 11.962036 -2.6195068c3.6606445 -1.7463226 6.4450684 -4.1956635 8.353149 -7.3480225c1.9185181 -3.161316 2.8777466 -7.495804 2.8777466 -13.003464c0 -6.7972717 -2.1621704 -12.121338 -6.4865723 -15.972244c-4.324341 -3.8598328 -9.893127 -5.7897644 -16.70636 -5.7897644z" fill-rule="evenodd"></path><path fill="#c9daf8" d="m677.47864 141.85097c-6.8754272 0 -12.133118 2.3508453 -15.77301 7.0525055l0 -6.0852966l-7.5598755 0l0 42.798584l8.399841 0l0 -23.373993c0 -5.4808044 1.2962646 -9.201828 3.888794 -11.163101c2.6029663 -1.9612579 5.6932373 -2.9418945 9.270996 -2.9418945c2.2399292 0 4.189575 0.4388275 5.848755 1.3164673c1.6696167 0.8686981 2.8310547 2.0373993 3.484375 3.5061035c0.6533203 1.4597626 0.97998047 3.6672974 0.97998047 6.622635l0 26.033783l8.399902 0l0 -26.315887c0 -3.3583374 -0.15557861 -5.7091675 -0.4666748 -7.0525055c-0.49780273 -2.0687256 -1.3688965 -3.855362 -2.6132812 -5.359894c-1.2444458 -1.5045319 -3.12146 -2.7180023 -5.6310425 -3.6404266c-2.4992065 -0.9313812 -5.2421265 -1.3970795 -8.22876 -1.3970795z" fill-rule="evenodd"></path><path fill="#c9daf8" d="m717.1913 127.866875l-8.353149 4.352394l0 10.598907l-6.159912 0l0 5.6419983l6.159912 0l0 24.623291c0 4.3524017 0.34222412 7.2092285 1.0266113 8.570465c0.68444824 1.3522949 1.8666382 2.44487 3.5466309 3.2777405c1.6799316 0.8328552 4.0443726 1.2492981 7.0932007 1.2492981c1.8666382 0 3.9821777 -0.2149353 6.3465576 -0.6448059l-1.2133179 -6.4076996c-1.5244141 0.18806458 -2.753296 0.2821045 -3.6865845 0.2821045c-1.2444458 0 -2.2036743 -0.17463684 -2.8777466 -0.52389526c-0.6636963 -0.34927368 -1.145874 -0.81944275 -1.4466553 -1.4105072c-0.29034424 -0.59106445 -0.43554688 -1.9209595 -0.43554688 -3.9897003l0 -25.02629l8.446533 0l0 -5.6419983l-8.446533 0l0 -14.951302z" fill-rule="evenodd"></path><path fill="#c9daf8" d="m754.29065 147.81537c4.262146 0 7.730957 1.3970642 10.406494 4.191208c1.7421875 1.8000641 2.7999268 4.500168 3.1732788 8.100296l-27.672852 0c0.27996826 -3.7344666 1.7318115 -6.716675 4.3554688 -8.946594c2.6340332 -2.2299347 5.879883 -3.3449097 9.73761 -3.3449097zm-0.093322754 -5.9644012c-6.8443604 0 -12.413147 1.9881439 -16.70636 5.9644012c-4.293274 3.9762726 -6.4398804 9.564529 -6.4398804 16.764801c0 6.9584656 2.1206665 12.36763 6.3620605 16.227463c4.251831 3.850891 10.002075 5.7763367 17.250854 5.7763367c5.755432 0 10.484253 -1.2089996 14.186401 -3.626999c3.7021484 -2.4179993 6.237671 -5.816635 7.6065063 -10.195908l-8.67981 -0.92689514c-1.2755737 3.0628052 -3.0021973 5.29274 -5.1799316 6.689804c-2.1777344 1.3970642 -4.8065796 2.0955963 -7.8865356 2.0955963c-4.1376953 0 -7.5909424 -1.2492981 -10.359802 -3.7478943c-2.7688599 -2.4986115 -4.308838 -6.0987396 -4.619934 -10.8004l36.95935 0c0.03112793 -0.8597412 0.046691895 -1.5045319 0.046691895 -1.9344025c0 -7.065933 -2.0999756 -12.546738 -6.2999268 -16.442398c-4.19989 -3.8956604 -9.613159 -5.843506 -16.239685 -5.843506z" fill-rule="evenodd"></path><path fill="#c9daf8" d="m803.2898 141.85097c-2.5821533 0 -5.003662 0.2910614 -7.2643433 0.87316895c-2.2503052 0.5731659 -4.0288086 1.2761688 -5.335449 2.1090393c-1.7421875 1.0746613 -3.121399 2.4269562 -4.1376953 4.0568695c-1.0059204 1.6209564 -1.5088501 3.3851929 -1.5088501 5.2927246c0 2.0955963 0.6118164 4.0121 1.8355103 5.749466c1.2340698 1.7284241 3.0384521 3.0851898 5.413269 4.0702972c2.3851318 0.9761658 6.657654 2.13591 12.817505 3.4792328c4.573242 0.99406433 7.435425 1.8135071 8.586548 2.4582977c1.6488647 0.94033813 2.4732666 2.2299347 2.4732666 3.868805c0 1.8269348 -0.9332886 3.4210205 -2.7999268 4.7822723c-1.8666382 1.3522797 -4.728821 2.0284271 -8.586548 2.0284271c-3.8265991 0 -6.8080444 -0.7657013 -8.944275 -2.297104c-2.1258545 -1.5314026 -3.4221802 -3.7344666 -3.888794 -6.609192l-8.306519 1.1284027c0.9332886 4.540451 3.085144 7.9659576 6.4554443 10.276489c3.3806763 2.3105316 8.290955 3.465805 14.730835 3.465805c3.888794 0 7.373169 -0.58210754 10.453125 -1.7463379c3.079956 -1.173172 5.43396 -2.82547 7.062134 -4.956894c1.6384277 -2.1403809 2.4577026 -4.419571 2.4577026 -6.83757c0 -2.4717255 -0.6688843 -4.5404663 -2.0065918 -6.206192c-1.3377686 -1.665741 -3.1837158 -2.932953 -5.5377197 -3.8016357c-2.343689 -0.8776398 -6.486511 -2.0015717 -12.42865 -3.3717651c-4.1066284 -0.96720886 -6.579895 -1.585144 -7.419861 -1.8538055c-1.4622192 -0.5104675 -2.5355225 -1.1552582 -3.2199707 -1.9344025c-0.68444824 -0.7522583 -1.0266113 -1.5985565 -1.0266113 -2.5388947c0 -1.4776611 0.82440186 -2.767273 2.4732666 -3.868805c1.6488647 -1.101532 4.4021606 -1.652298 8.259827 -1.652298c3.2666626 0 5.791748 0.6179352 7.5754395 1.8538055c1.7940063 1.2358704 2.8777466 2.9553375 3.2510376 5.1584015l8.213196 -0.96720886c-0.5288696 -2.7672577 -1.4932861 -4.9748077 -2.8932495 -6.622635c-1.3999634 -1.6567688 -3.5725708 -2.9687653 -6.5177 -3.9359589c-2.9347534 -0.9671936 -6.3465576 -1.4508057 -10.235352 -1.4508057z" fill-rule="evenodd"></path><path fill="#c9daf8" d="m844.6824 127.866875l-8.353149 4.352394l0 10.598907l-6.159912 0l0 5.6419983l6.159912 0l0 24.623291c0 4.3524017 0.34222412 7.2092285 1.0266113 8.570465c0.68444824 1.3522949 1.8666382 2.44487 3.5466309 3.2777405c1.6799927 0.8328552 4.0443726 1.2492981 7.0932007 1.2492981c1.8666382 0 3.9821777 -0.2149353 6.3465576 -0.6448059l-1.2133179 -6.4076996c-1.5244141 0.18806458 -2.753296 0.2821045 -3.6865845 0.2821045c-1.2444458 0 -2.2036743 -0.17463684 -2.8777466 -0.52389526c-0.6636963 -0.34927368 -1.145935 -0.81944275 -1.4466553 -1.4105072c-0.29034424 -0.59106445 -0.43554688 -1.9209595 -0.43554688 -3.9897003l0 -25.02629l8.446533 0l0 -5.6419983l-8.446533 0l0 -14.951302z" fill-rule="evenodd"></path><path stroke="#000000" stroke-width="1.0" stroke-linejoin="round" stroke-linecap="butt" d="m385.5138 34.639553c4.9154663 0 8.384277 0.2776184 10.406464 0.83286667c2.0221863 0.54628754 3.5777283 1.5672226 4.6665955 3.0627975c1.0888672 1.4866219 1.6333008 3.2105675 1.6333008 5.171833c0 2.0687332 -0.585907 3.7882004 -1.7577515 5.1583977c-1.161438 1.3702011 -2.89328 2.350834 -5.195465 2.9419022c-1.7421875 0.4567299 -4.6199036 0.68509674 -8.633179 0.68509674l-14.79306 0l0 -17.852894zm2.146637 24.824795c4.3554688 0 7.6894836 0.33135605 10.002045 0.99406433c2.3229065 0.653759 4.1376953 1.7955894 5.444336 3.4255028c1.3066406 1.6209526 1.9599609 3.5329628 1.9599609 5.7360344c0 1.880661 -0.45111084 3.541916 -1.353302 4.9837646c-0.9022217 1.4328842 -2.0533142 2.525467 -3.4532776 3.2777328c-1.3999634 0.75226593 -3.1421509 1.2895966 -5.2265625 1.6119995c-1.1822205 0.18806458 -3.2355042 0.28209686 -6.159912 0.28209686l-17.03302 0l0 -20.311195zm-24.872925 -31.796696l0 59.079792l26.086212 0c4.3554993 0 8.031738 -0.3268814 11.028717 -0.9806366c3.0073547 -0.6627121 5.5065613 -1.6388626 7.49765 -2.9284668c1.9910583 -1.2895966 3.660675 -3.1210098 5.008789 -5.494232c1.35849 -2.3821793 2.0377502 -4.956894 2.0377502 -7.7241592c0 -3.4389343 -1.1148071 -6.421135 -3.3443909 -8.946602c-2.2192383 -2.525467 -5.3976746 -4.3120995 -9.5354 -5.3598976c3.2044067 -1.3702011 5.5999146 -3.170269 7.186554 -5.4002c1.5866394 -2.2299347 2.3799438 -4.6076317 2.3799438 -7.1330986c0 -2.7135353 -0.8970032 -5.3106422 -2.6910706 -7.7913322c-1.7836609 -2.489647 -4.256958 -4.3300114 -7.419861 -5.521099c-3.1525269 -1.2000465 -7.342102 -1.8000679 -12.568665 -1.8000679z" fill-rule="evenodd"></path><path stroke="#000000" stroke-width="1.0" stroke-linejoin="round" stroke-linecap="butt" d="m425.87976 27.667652l0 8.342098l8.399841 0l0 -8.342098zm0 16.281197l0 42.798595l8.399841 0l0 -42.798595z" fill-rule="evenodd"></path><path stroke="#000000" stroke-width="1.0" stroke-linejoin="round" stroke-linecap="butt" d="m443.79944 61.721146l0 7.2942963l25.806213 0l0 -7.2942963z" fill-rule="evenodd"></path><path stroke="#000000" stroke-width="1.0" stroke-linejoin="round" stroke-linecap="butt" d="m473.7589 27.667652l18.153015 59.079792l9.239838 0l14.513092 -45.015095c0.6221924 -1.9075317 1.2910767 -4.2180634 2.0065918 -6.9315987c0.21777344 0.8597336 0.9333496 3.1702652 2.1466675 6.9315987l14.419739 45.015095l8.726501 0l18.759644 -59.079792l-9.0997925 0l-10.733154 37.962597c-1.3999634 4.8359985 -2.5355225 9.121231 -3.4066162 12.855698c-1.0888672 -6.5286026 -2.8621826 -13.500504 -5.3198853 -20.915699l-9.799866 -29.902596l-10.9198 0l-13.019775 39.89699c-0.3110962 0.96720123 -1.337738 4.6076355 -3.0799255 10.921303c-0.8088684 -4.0031357 -1.7733154 -8.033134 -2.89328 -12.090004l-10.406494 -38.72829z" fill-rule="evenodd"></path><path stroke="#000000" stroke-width="1.0" stroke-linejoin="round" stroke-linecap="butt" d="m589.53687 48.94605c4.262146 0 7.730957 1.397068 10.406494 4.1912003c1.7421875 1.8000641 2.7999268 4.500164 3.1732788 8.1003l-27.672852 0c0.27996826 -3.7344666 1.7318115 -6.716667 4.3554688 -8.946602c2.6340332 -2.2299309 5.879883 -3.3448982 9.73761 -3.3448982zm-0.093322754 -5.9643974c-6.8442993 0 -12.413086 1.9881325 -16.70636 5.9643974c-4.293274 3.976265 -6.4398804 9.564533 -6.4398804 16.764797c0 6.9584656 2.1206665 12.367615 6.3620605 16.227463c4.251831 3.850891 10.002075 5.7763367 17.250854 5.7763367c5.755432 0 10.484253 -1.2089996 14.186401 -3.626999c3.7021484 -2.4179993 6.237671 -5.816635 7.6065063 -10.1959l-8.67981 -0.9269028c-1.2755737 3.0627975 -3.0021973 5.2927322 -5.1799316 6.6897964c-2.1777344 1.3970718 -4.8065796 2.095604 -7.8865356 2.095604c-4.1376953 0 -7.5909424 -1.2492981 -10.359802 -3.747902c-2.7688599 -2.4985962 -4.308838 -6.098732 -4.619934 -10.8004l36.95935 0c0.03112793 -0.85972595 0.046691895 -1.5045319 0.046691895 -1.9343948c0 -7.065933 -2.0999756 -12.546734 -6.2999268 -16.442398c-4.19989 -3.895668 -9.613159 -5.843498 -16.239685 -5.843498z" fill-rule="evenodd"></path><path stroke="#000000" stroke-width="1.0" stroke-linejoin="round" stroke-linecap="butt" d="m642.6893 48.94605c4.262146 0 7.730957 1.397068 10.406494 4.1912003c1.7421875 1.8000641 2.7999268 4.500164 3.1732788 8.1003l-27.672852 0c0.27996826 -3.7344666 1.7318115 -6.716667 4.3554688 -8.946602c2.6340332 -2.2299309 5.879883 -3.3448982 9.73761 -3.3448982zm-0.093322754 -5.9643974c-6.8442993 0 -12.413147 1.9881325 -16.70636 5.9643974c-4.293274 3.976265 -6.4398804 9.564533 -6.4398804 16.764797c0 6.9584656 2.1206665 12.367615 6.3620605 16.227463c4.251831 3.850891 10.002075 5.7763367 17.250854 5.7763367c5.755432 0 10.484253 -1.2089996 14.186401 -3.626999c3.7021484 -2.4179993 6.237671 -5.816635 7.6065063 -10.1959l-8.67981 -0.9269028c-1.2755737 3.0627975 -3.0021973 5.2927322 -5.1799316 6.6897964c-2.1777344 1.3970718 -4.8065796 2.095604 -7.8865356 2.095604c-4.1376953 0 -7.5909424 -1.2492981 -10.359802 -3.747902c-2.7688599 -2.4985962 -4.308838 -6.098732 -4.619934 -10.8004l36.95935 0c0.03112793 -0.85972595 0.046691895 -1.5045319 0.046691895 -1.9343948c0 -7.065933 -2.0999756 -12.546734 -6.2999268 -16.442398c-4.19989 -3.895668 -9.613159 -5.843498 -16.239685 -5.843498z" fill-rule="evenodd"></path><path stroke="#000000" stroke-width="1.0" stroke-linejoin="round" stroke-linecap="butt" d="m675.4487 27.667652l0 59.079792l8.399841 0l0 -16.966301l5.9265137 -4.9165955l16.37976 21.882896l10.359802 0l-20.85962 -26.920399l18.94629 -15.878197l-10.873108 0l-19.879639 17.4096l0 -33.690796z" fill-rule="evenodd"></path><path stroke="#000000" stroke-width="1.0" stroke-linejoin="round" stroke-linecap="butt" d="m723.0012 27.667652l0 59.079792l8.399841 0l0 -59.079792z" fill-rule="evenodd"></path><path stroke="#000000" stroke-width="1.0" stroke-linejoin="round" stroke-linecap="butt" d="m739.6609 43.94885l18.806335 42.879192c-0.34222412 0.77913666 -0.59106445 1.3702011 -0.74664307 1.773201c-1.18219 2.874733 -2.0377197 4.674797 -2.5665894 5.4002c-0.7155762 0.96720123 -1.6333008 1.7194672 -2.753296 2.2567978c-1.1199951 0.5373306 -2.6132812 0.80599976 -4.4799194 0.80599976c-1.3688965 0 -2.9710693 -0.2149353 -4.8065796 -0.6447983l0 0l0.9332886 6.8106995c1.9910889 0.59106445 3.7954712 0.8865967 5.413269 0.8865967c2.675476 0 4.977661 -0.5597153 6.906555 -1.6791611c1.928833 -1.1104889 3.6398926 -2.8613052 5.1332397 -5.252434c1.1199341 -1.773201 2.69104 -5.0106354 4.713196 -9.712303l18.853027 -43.52399l-8.399841 0l-10.59314 24.945698c-1.3377686 3.1702652 -2.4888306 6.421135 -3.453308 9.752594c-1.0577393 -3.4657974 -2.2554932 -6.7703934 -3.5932617 -9.913795l-10.31311 -24.784496z" fill-rule="evenodd"></path><path stroke="#000000" stroke-width="1.0" stroke-linejoin="round" stroke-linecap="butt" d="m293.7454 126.53697l0 59.07979l8.726532 0l0 -50.294388l19.786316 50.294388l8.166504 0l19.87967 -49.44809l0 49.44809l8.726501 0l0 -59.07979l-12.179779 0l-16.37973 41.106003c-1.6488342 4.164322 -2.862152 7.3211517 -3.639923 9.4704895c-0.6844177 -1.9344025 -1.7732849 -4.8494263 -3.2666016 -8.745102l-16.193054 -41.83139z" fill-rule="evenodd"></path><path stroke="#000000" stroke-width="1.0" stroke-linejoin="round" stroke-linecap="butt" d="m404.20346 164.13687l0 2.65979c0 3.1971436 -0.45111084 5.615143 -1.353302 7.254013c-1.1822205 2.1224518 -3.0332947 3.7971497 -5.553253 5.024063c-2.5199585 1.2179565 -5.3976746 1.8269348 -8.633179 1.8269348c-3.2666016 0 -5.7502747 -0.6448059 -7.450989 -1.9344025c-1.6903381 -1.2895966 -2.535492 -2.901596 -2.535492 -4.8359985c0 -1.2627411 0.3888855 -2.4090424 1.166626 -3.4389343c0.777771 -1.0388489 1.8822021 -1.8269348 3.3132935 -2.364273c1.4310913 -0.537323 3.8732605 -1.020935 7.326538 -1.4507904c6.0976562 -0.75227356 10.670929 -1.665741 13.719757 -2.7404022zm-10.686493 -22.285904c-4.262146 0 -8.010956 0.5059967 -11.24646 1.5179749c-3.2355042 1.0030212 -5.7087708 2.440384 -7.419861 4.3121033c-1.7110901 1.8627472 -2.9399414 4.312088 -3.686615 7.3480225l8.213196 0.96720886c0.9022217 -3.0359344 2.291809 -5.1494446 4.1688232 -6.3405457c1.8873596 -1.2000275 4.8065796 -1.8000641 8.757629 -1.8000641c4.231018 0 7.419861 0.81944275 9.566498 2.4582977c1.5866394 1.2089996 2.3799438 3.2911682 2.3799438 6.2465057c0 0.2686615 -0.015563965 0.9000397 -0.046661377 1.894104c-3.2043762 0.9671936 -8.197632 1.8000641 -14.979736 2.4985962c-3.328827 0.34925842 -5.817688 0.71195984 -7.466522 1.0881042c-2.2399902 0.537323 -4.2569885 1.329895 -6.0510254 2.3777008c-1.7836609 1.0477905 -3.2303162 2.440384 -4.339905 4.177765c-1.0992432 1.7284241 -1.6488647 3.6404266 -1.6488647 5.736023c0 3.5732727 1.4621887 6.5106964 4.386566 8.812271c2.924408 2.2926178 7.1087646 3.4389343 12.553131 3.4389343c3.2977295 0 6.382843 -0.47016907 9.255402 -1.4105072c2.882904 -0.9403229 5.879883 -2.5523224 8.990936 -4.8359985c0.24890137 2.0149994 0.8088684 3.774765 1.6799622 5.279297l8.773193 0c-1.0577698 -1.638855 -1.7681274 -3.3493652 -2.131073 -5.131531c-0.3526001 -1.7911072 -0.5288696 -6.058426 -0.5288696 -12.801956l0 -9.671997c0 -3.223999 -0.14001465 -5.4539337 -0.42001343 -6.689804c-0.49777222 -1.9881287 -1.368866 -3.6314697 -2.6132812 -4.9300385c-1.2444153 -1.3074951 -3.1888428 -2.3911285 -5.8332214 -3.2508545c-2.6444092 -0.8597412 -6.082123 -1.2896118 -10.313171 -1.2896118z" fill-rule="evenodd"></path><path stroke="#000000" stroke-width="1.0" stroke-linejoin="round" stroke-linecap="butt" d="m435.6096 127.866875l-8.35321 4.352394l0 10.598907l-6.1598816 0l0 5.6419983l6.1598816 0l0 24.623291c0 4.3524017 0.34222412 7.2092285 1.0266724 8.570465c0.6844177 1.3522949 1.8666077 2.44487 3.5466003 3.2777405c1.6799622 0.8328552 4.0443726 1.2492981 7.0932007 1.2492981c1.8666382 0 3.9821472 -0.2149353 6.3465576 -0.6448059l-1.2133179 -6.4076996c-1.5244141 0.18806458 -2.753296 0.2821045 -3.6865845 0.2821045c-1.2444458 0 -2.2036743 -0.17463684 -2.8777466 -0.52389526c-0.6636963 -0.34927368 -1.1459045 -0.81944275 -1.4466248 -1.4105072c-0.29037476 -0.59106445 -0.43554688 -1.9209595 -0.43554688 -3.9897003l0 -25.02629l8.446503 0l0 -5.6419983l-8.446503 0l0 -14.951302z" fill-rule="evenodd"></path><path stroke="#000000" stroke-width="1.0" stroke-linejoin="round" stroke-linecap="butt" d="m452.2693 126.53697l0 59.07979l8.399841 0l0 -23.414291c0 -3.3583374 0.4666748 -5.991272 1.3999939 -7.8988037c0.9333191 -1.9075317 2.4940186 -3.4165344 4.682129 -4.5270233c2.1984863 -1.1194458 4.542145 -1.6791687 7.0309753 -1.6791687c3.3288574 0 5.900635 0.8283844 7.7154236 2.4851685c1.8251648 1.6478271 2.737732 4.2852325 2.737732 7.9122314l0 27.121887l8.399872 0l0 -27.121887c0 -4.191208 -0.5859375 -7.388336 -1.7577515 -9.5914c-1.1614685 -2.203064 -3.09552 -3.927002 -5.802124 -5.171829c-2.7066345 -1.2537842 -5.895447 -1.8806763 -9.566498 -1.8806763c-5.973236 0 -10.9198 1.9612732 -14.839752 5.8838043l0 -21.1978z" fill-rule="evenodd"></path><path stroke="#000000" stroke-width="1.0" stroke-linejoin="round" stroke-linecap="butt" d="m562.72736 125.52947c-6.0354614 0 -11.567932 1.1910934 -16.597473 3.573265c-5.019226 2.37323 -8.892456 5.852463 -11.619812 10.437698c-2.71698 4.576294 -4.0755005 9.940674 -4.0755005 16.09314c0 5.6419983 1.2029419 10.921295 3.6088257 15.837891c2.4162598 4.9165955 5.9317627 8.673462 10.546509 11.270569c4.625122 2.58815 10.624268 3.8822327 17.997437 3.8822327c7.1243286 0 13.149414 -1.6836395 18.075256 -5.050934c4.9362183 -3.376236 8.353149 -8.274933 10.250916 -14.69606l-9.053162 -1.9747009c-1.2444458 4.9703217 -3.6243896 8.718231 -7.1398926 11.243698c-3.515503 2.525467 -7.808716 3.7881927 -12.879761 3.7881927c-4.1688232 0 -8.042114 -0.92689514 -11.619812 -2.7807007c-3.5776978 -1.8537903 -6.216919 -4.652405 -7.9176025 -8.395828c-1.6903687 -3.752365 -2.5355225 -8.1405945 -2.5355225 -13.164658c0 -3.8956757 0.71551514 -7.6749115 2.1466064 -11.337738c1.4310913 -3.6717682 3.909607 -6.595764 7.435425 -8.771957c3.536255 -2.1762085 7.9332275 -3.2643127 13.190918 -3.2643127c4.573242 0 8.368713 0.9806366 11.386414 2.9419098c3.0177612 1.9612579 5.3199463 5.0912323 6.906555 9.389893l8.913208 -1.8134918c-1.8355103 -5.4539337 -5.086609 -9.68544 -9.753174 -12.694504c-4.666565 -3.0090637 -10.422058 -4.513603 -17.266357 -4.513603z" fill-rule="evenodd"></path><path stroke="#000000" stroke-width="1.0" stroke-linejoin="round" stroke-linecap="butt" d="m621.1063 147.85567c4.1376953 0 7.5961914 1.3657379 10.375366 4.097168c2.7896118 2.7224884 4.184387 6.7301025 4.184387 12.022827c0 5.615143 -1.3844604 9.792908 -4.1532593 12.53331c-2.7688599 2.740387 -6.237671 4.1105957 -10.406494 4.1105957c-4.199951 0 -7.684326 -1.3612366 -10.453125 -4.08374c-2.7688599 -2.73143 -4.1532593 -6.837555 -4.1532593 -12.318359c0 -5.4808044 1.3843994 -9.577957 4.1532593 -12.291504c2.7687988 -2.7135315 6.253174 -4.0702972 10.453125 -4.0702972zm0 -6.0046997c-6.128784 0 -11.324219 1.585144 -15.586426 4.7554016c-5.102112 3.8150635 -7.6531982 9.68544 -7.6531982 17.6111c0 7.227127 2.1362915 12.761658 6.4088135 16.603592c4.282898 3.8419342 9.893127 5.762909 16.83081 5.762909c4.324341 0 8.311707 -0.87316895 11.962036 -2.6195068c3.6606445 -1.7463226 6.4450684 -4.1956635 8.353149 -7.3480225c1.9185181 -3.161316 2.8777466 -7.495804 2.8777466 -13.003464c0 -6.7972717 -2.1621704 -12.121338 -6.4865723 -15.972244c-4.324341 -3.8598328 -9.893127 -5.7897644 -16.70636 -5.7897644z" fill-rule="evenodd"></path><path stroke="#000000" stroke-width="1.0" stroke-linejoin="round" stroke-linecap="butt" d="m677.47864 141.85097c-6.8754272 0 -12.133118 2.3508453 -15.77301 7.0525055l0 -6.0852966l-7.5598755 0l0 42.798584l8.399841 0l0 -23.373993c0 -5.4808044 1.2962646 -9.201828 3.888794 -11.163101c2.6029663 -1.9612579 5.6932373 -2.9418945 9.270996 -2.9418945c2.2399292 0 4.189575 0.4388275 5.848755 1.3164673c1.6696167 0.8686981 2.8310547 2.0373993 3.484375 3.5061035c0.6533203 1.4597626 0.97998047 3.6672974 0.97998047 6.622635l0 26.033783l8.399902 0l0 -26.315887c0 -3.3583374 -0.15557861 -5.7091675 -0.4666748 -7.0525055c-0.49780273 -2.0687256 -1.3688965 -3.855362 -2.6132812 -5.359894c-1.2444458 -1.5045319 -3.12146 -2.7180023 -5.6310425 -3.6404266c-2.4992065 -0.9313812 -5.2421265 -1.3970795 -8.22876 -1.3970795z" fill-rule="evenodd"></path><path stroke="#000000" stroke-width="1.0" stroke-linejoin="round" stroke-linecap="butt" d="m717.1913 127.866875l-8.353149 4.352394l0 10.598907l-6.159912 0l0 5.6419983l6.159912 0l0 24.623291c0 4.3524017 0.34222412 7.2092285 1.0266113 8.570465c0.68444824 1.3522949 1.8666382 2.44487 3.5466309 3.2777405c1.6799316 0.8328552 4.0443726 1.2492981 7.0932007 1.2492981c1.8666382 0 3.9821777 -0.2149353 6.3465576 -0.6448059l-1.2133179 -6.4076996c-1.5244141 0.18806458 -2.753296 0.2821045 -3.6865845 0.2821045c-1.2444458 0 -2.2036743 -0.17463684 -2.8777466 -0.52389526c-0.6636963 -0.34927368 -1.145874 -0.81944275 -1.4466553 -1.4105072c-0.29034424 -0.59106445 -0.43554688 -1.9209595 -0.43554688 -3.9897003l0 -25.02629l8.446533 0l0 -5.6419983l-8.446533 0l0 -14.951302z" fill-rule="evenodd"></path><path stroke="#000000" stroke-width="1.0" stroke-linejoin="round" stroke-linecap="butt" d="m754.29065 147.81537c4.262146 0 7.730957 1.3970642 10.406494 4.191208c1.7421875 1.8000641 2.7999268 4.500168 3.1732788 8.100296l-27.672852 0c0.27996826 -3.7344666 1.7318115 -6.716675 4.3554688 -8.946594c2.6340332 -2.2299347 5.879883 -3.3449097 9.73761 -3.3449097zm-0.093322754 -5.9644012c-6.8443604 0 -12.413147 1.9881439 -16.70636 5.9644012c-4.293274 3.9762726 -6.4398804 9.564529 -6.4398804 16.764801c0 6.9584656 2.1206665 12.36763 6.3620605 16.227463c4.251831 3.850891 10.002075 5.7763367 17.250854 5.7763367c5.755432 0 10.484253 -1.2089996 14.186401 -3.626999c3.7021484 -2.4179993 6.237671 -5.816635 7.6065063 -10.195908l-8.67981 -0.92689514c-1.2755737 3.0628052 -3.0021973 5.29274 -5.1799316 6.689804c-2.1777344 1.3970642 -4.8065796 2.0955963 -7.8865356 2.0955963c-4.1376953 0 -7.5909424 -1.2492981 -10.359802 -3.7478943c-2.7688599 -2.4986115 -4.308838 -6.0987396 -4.619934 -10.8004l36.95935 0c0.03112793 -0.8597412 0.046691895 -1.5045319 0.046691895 -1.9344025c0 -7.065933 -2.0999756 -12.546738 -6.2999268 -16.442398c-4.19989 -3.8956604 -9.613159 -5.843506 -16.239685 -5.843506z" fill-rule="evenodd"></path><path stroke="#000000" stroke-width="1.0" stroke-linejoin="round" stroke-linecap="butt" d="m803.2898 141.85097c-2.5821533 0 -5.003662 0.2910614 -7.2643433 0.87316895c-2.2503052 0.5731659 -4.0288086 1.2761688 -5.335449 2.1090393c-1.7421875 1.0746613 -3.121399 2.4269562 -4.1376953 4.0568695c-1.0059204 1.6209564 -1.5088501 3.3851929 -1.5088501 5.2927246c0 2.0955963 0.6118164 4.0121 1.8355103 5.749466c1.2340698 1.7284241 3.0384521 3.0851898 5.413269 4.0702972c2.3851318 0.9761658 6.657654 2.13591 12.817505 3.4792328c4.573242 0.99406433 7.435425 1.8135071 8.586548 2.4582977c1.6488647 0.94033813 2.4732666 2.2299347 2.4732666 3.868805c0 1.8269348 -0.9332886 3.4210205 -2.7999268 4.7822723c-1.8666382 1.3522797 -4.728821 2.0284271 -8.586548 2.0284271c-3.8265991 0 -6.8080444 -0.7657013 -8.944275 -2.297104c-2.1258545 -1.5314026 -3.4221802 -3.7344666 -3.888794 -6.609192l-8.306519 1.1284027c0.9332886 4.540451 3.085144 7.9659576 6.4554443 10.276489c3.3806763 2.3105316 8.290955 3.465805 14.730835 3.465805c3.888794 0 7.373169 -0.58210754 10.453125 -1.7463379c3.079956 -1.173172 5.43396 -2.82547 7.062134 -4.956894c1.6384277 -2.1403809 2.4577026 -4.419571 2.4577026 -6.83757c0 -2.4717255 -0.6688843 -4.5404663 -2.0065918 -6.206192c-1.3377686 -1.665741 -3.1837158 -2.932953 -5.5377197 -3.8016357c-2.343689 -0.8776398 -6.486511 -2.0015717 -12.42865 -3.3717651c-4.1066284 -0.96720886 -6.579895 -1.585144 -7.419861 -1.8538055c-1.4622192 -0.5104675 -2.5355225 -1.1552582 -3.2199707 -1.9344025c-0.68444824 -0.7522583 -1.0266113 -1.5985565 -1.0266113 -2.5388947c0 -1.4776611 0.82440186 -2.767273 2.4732666 -3.868805c1.6488647 -1.101532 4.4021606 -1.652298 8.259827 -1.652298c3.2666626 0 5.791748 0.6179352 7.5754395 1.8538055c1.7940063 1.2358704 2.8777466 2.9553375 3.2510376 5.1584015l8.213196 -0.96720886c-0.5288696 -2.7672577 -1.4932861 -4.9748077 -2.8932495 -6.622635c-1.3999634 -1.6567688 -3.5725708 -2.9687653 -6.5177 -3.9359589c-2.9347534 -0.9671936 -6.3465576 -1.4508057 -10.235352 -1.4508057z" fill-rule="evenodd"></path><path stroke="#000000" stroke-width="1.0" stroke-linejoin="round" stroke-linecap="butt" d="m844.6824 127.866875l-8.353149 4.352394l0 10.598907l-6.159912 0l0 5.6419983l6.159912 0l0 24.623291c0 4.3524017 0.34222412 7.2092285 1.0266113 8.570465c0.68444824 1.3522949 1.8666382 2.44487 3.5466309 3.2777405c1.6799927 0.8328552 4.0443726 1.2492981 7.0932007 1.2492981c1.8666382 0 3.9821777 -0.2149353 6.3465576 -0.6448059l-1.2133179 -6.4076996c-1.5244141 0.18806458 -2.753296 0.2821045 -3.6865845 0.2821045c-1.2444458 0 -2.2036743 -0.17463684 -2.8777466 -0.52389526c-0.6636963 -0.34927368 -1.145935 -0.81944275 -1.4466553 -1.4105072c-0.29034424 -0.59106445 -0.43554688 -1.9209595 -0.43554688 -3.9897003l0 -25.02629l8.446533 0l0 -5.6419983l-8.446533 0l0 -14.951302z" fill-rule="evenodd"></path><path fill="#cfe2f3" d="m122.29375 50.599735c-11.618156 0 -20.966095 3.1191597 -28.043823 9.357479c-7.058647 6.2383194 -11.303375 15.223793 -12.734184 26.956413l15.881966 1.8886642c1.3735733 -8.756546 4.2638016 -15.195175 8.670692 -19.315903c4.4068832 -4.12072 9.901184 -6.1810837 16.482895 -6.1810837c6.810646 0 12.562492 2.2797546 17.255531 6.8392563c4.693054 4.540436 7.0395813 9.815338 7.0395813 15.82473c0 3.3194733 -0.8012543 6.381401 -2.4037628 9.185783c-1.6025085 2.8043823 -5.084137 6.572174 -10.444885 11.303375c-5.34169 4.7121277 -9.042709 8.298683 -11.1030655 10.759674c-2.8043823 3.3767014 -4.836136 6.7247925 -6.0952454 10.044266c-1.7169647 4.406891 -2.575447 9.643631 -2.575447 15.710266c0 1.0301819 0.02861023 2.5754547 0.08584595 4.635803l14.851776 0c0.114471436 -6.181076 0.54371643 -10.645203 1.287735 -13.392349c0.74401855 -2.7471466 1.8886566 -5.1795197 3.4339294 -7.297119c1.5452728 -2.1175919 4.836136 -5.4084473 9.872574 -9.872566c7.4974213 -6.6389465 12.5338745 -12.276329 15.109329 -16.91214c2.5754395 -4.6358185 3.8631744 -9.700874 3.8631744 -15.195175c0 -9.500557 -3.6628723 -17.59893 -10.988602 -24.295105c-7.3257294 -6.6961784 -17.141068 -10.04427 -29.446014 -10.04427zm-8.928238 110.40109l0 17.598923l17.598938 0l0 -17.598923z" fill-rule="evenodd"></path><path stroke="#000000" stroke-width="1.0" stroke-linejoin="round" stroke-linecap="butt" d="m122.29375 50.599735c-11.618156 0 -20.966095 3.1191597 -28.043823 9.357479c-7.058647 6.2383194 -11.303375 15.223793 -12.734184 26.956413l15.881966 1.8886642c1.3735733 -8.756546 4.2638016 -15.195175 8.670692 -19.315903c4.4068832 -4.12072 9.901184 -6.1810837 16.482895 -6.1810837c6.810646 0 12.562492 2.2797546 17.255531 6.8392563c4.693054 4.540436 7.0395813 9.815338 7.0395813 15.82473c0 3.3194733 -0.8012543 6.381401 -2.4037628 9.185783c-1.6025085 2.8043823 -5.084137 6.572174 -10.444885 11.303375c-5.34169 4.7121277 -9.042709 8.298683 -11.1030655 10.759674c-2.8043823 3.3767014 -4.836136 6.7247925 -6.0952454 10.044266c-1.7169647 4.406891 -2.575447 9.643631 -2.575447 15.710266c0 1.0301819 0.02861023 2.5754547 0.08584595 4.635803l14.851776 0c0.114471436 -6.181076 0.54371643 -10.645203 1.287735 -13.392349c0.74401855 -2.7471466 1.8886566 -5.1795197 3.4339294 -7.297119c1.5452728 -2.1175919 4.836136 -5.4084473 9.872574 -9.872566c7.4974213 -6.6389465 12.5338745 -12.276329 15.109329 -16.91214c2.5754395 -4.6358185 3.8631744 -9.700874 3.8631744 -15.195175c0 -9.500557 -3.6628723 -17.59893 -10.988602 -24.295105c-7.3257294 -6.6961784 -17.141068 -10.04427 -29.446014 -10.04427zm-8.928238 110.40109l0 17.598923l17.598938 0l0 -17.598923z" fill-rule="evenodd"></path><path fill="#cfe2f3" d="m1031.9185 50.599735c-11.618164 0 -20.966125 3.1191597 -28.043884 9.357479c-7.0585938 6.2383194 -11.303345 15.223793 -12.734131 26.956413l15.881958 1.8886642c1.3735352 -8.756546 4.263794 -15.195175 8.670654 -19.315903c4.4069214 -4.12072 9.901184 -6.1810837 16.482971 -6.1810837c6.810547 0 12.562378 2.2797546 17.255493 6.8392563c4.692993 4.540436 7.039551 9.815338 7.039551 15.82473c0 3.3194733 -0.80126953 6.381401 -2.4038086 9.185783c-1.602417 2.8043823 -5.0841064 6.572174 -10.444824 11.303375c-5.341675 4.7121277 -9.042725 8.298683 -11.103027 10.759674c-2.8044434 3.3767014 -4.8361816 6.7247925 -6.095337 10.044266c-1.716919 4.406891 -2.5753784 9.643631 -2.5753784 15.710266c0 1.0301819 0.028564453 2.5754547 0.08581543 4.635803l14.851746 0c0.11450195 -6.181076 0.5437012 -10.645203 1.2877197 -13.392349c0.74401855 -2.7471466 1.8886719 -5.1795197 3.43396 -7.297119c1.5452881 -2.1175919 4.8361816 -5.4084473 9.872559 -9.872566c7.4974365 -6.6389465 12.533936 -12.276329 15.109375 -16.91214c2.5754395 -4.6358185 3.8631592 -9.700874 3.8631592 -15.195175c0 -9.500557 -3.6628418 -17.59893 -10.988647 -24.295105c-7.3256836 -6.6961784 -17.140991 -10.04427 -29.445923 -10.04427zm-8.928284 110.40109l0 17.598923l17.598938 0l0 -17.598923z" fill-rule="evenodd"></path><path stroke="#000000" stroke-width="1.0" stroke-linejoin="round" stroke-linecap="butt" d="m1031.9185 50.599735c-11.618164 0 -20.966125 3.1191597 -28.043884 9.357479c-7.0585938 6.2383194 -11.303345 15.223793 -12.734131 26.956413l15.881958 1.8886642c1.3735352 -8.756546 4.263794 -15.195175 8.670654 -19.315903c4.4069214 -4.12072 9.901184 -6.1810837 16.482971 -6.1810837c6.810547 0 12.562378 2.2797546 17.255493 6.8392563c4.692993 4.540436 7.039551 9.815338 7.039551 15.82473c0 3.3194733 -0.80126953 6.381401 -2.4038086 9.185783c-1.602417 2.8043823 -5.0841064 6.572174 -10.444824 11.303375c-5.341675 4.7121277 -9.042725 8.298683 -11.103027 10.759674c-2.8044434 3.3767014 -4.8361816 6.7247925 -6.095337 10.044266c-1.716919 4.406891 -2.5753784 9.643631 -2.5753784 15.710266c0 1.0301819 0.028564453 2.5754547 0.08581543 4.635803l14.851746 0c0.11450195 -6.181076 0.5437012 -10.645203 1.2877197 -13.392349c0.74401855 -2.7471466 1.8886719 -5.1795197 3.43396 -7.297119c1.5452881 -2.1175919 4.8361816 -5.4084473 9.872559 -9.872566c7.4974365 -6.6389465 12.533936 -12.276329 15.109375 -16.91214c2.5754395 -4.6358185 3.8631592 -9.700874 3.8631592 -15.195175c0 -9.500557 -3.6628418 -17.59893 -10.988647 -24.295105c-7.3256836 -6.6961784 -17.140991 -10.04427 -29.445923 -10.04427zm-8.928284 110.40109l0 17.598923l17.598938 0l0 -17.598923z" fill-rule="evenodd"></path><path fill="#000000" fill-opacity="0.0" d="m373.08267 406.57806l0 0c0 -18.424347 14.935883 -33.36023 33.36023 -33.36023l328.11417 0c8.847717 0 17.333008 3.51474 23.589294 9.770996c6.2562256 6.256256 9.770935 14.741547 9.770935 23.589233l0 54.224426c0 18.424347 -14.935852 33.36023 -33.36023 33.36023l-328.11417 0c-18.424347 0 -33.36023 -14.935883 -33.36023 -33.36023z" fill-rule="nonzero"></path><path fill="#000000" fill-opacity="0.0" d="m406.4429 494.16272c-18.424347 0 -33.36023 -14.935883 -33.36023 -33.36023l0 -54.224426l0 0c0 -18.424347 14.935883 -33.36023 33.36023 -33.36023m328.11417 0c8.847717 0 17.333008 3.51474 23.589294 9.770996c6.2562256 6.256256 9.770935 14.741547 9.770935 23.589233l0 54.224426c0 18.424347 -14.935852 33.36023 -33.36023 33.36023" fill-rule="nonzero"></path><path stroke="#c9daf8" stroke-width="16.0" stroke-linejoin="round" stroke-linecap="butt" d="m406.4429 494.16272c-18.424347 0 -33.36023 -14.935883 -33.36023 -33.36023l0 -54.224426l0 0c0 -18.424347 14.935883 -33.36023 33.36023 -33.36023m328.11417 0c8.847717 0 17.333008 3.51474 23.589294 9.770996c6.2562256 6.256256 9.770935 14.741547 9.770935 23.589233l0 54.224426c0 18.424347 -14.935852 33.36023 -33.36023 33.36023" fill-rule="nonzero"></path></g></svg>

